# Alias OBJ Model File
# Exported from SketchUp, (c) 2000-2012 Trimble Navigation Limited
# File units = meters

mtllib Capacitor.mtl

g Mesh1 Model

usemtl FrontColor
v 0.387 5 2.46986
vt 15.2362 -97.2388
vn 0 1 -0
v 1.01306 5 2.28554
vt 39.8843 -89.982
v 1.57008 5 1.94547
vt 61.8143 -76.5931
v 2.02011 5 1.47281
vt 79.5318 -57.9845
v 2.33247 5 0.89978
vt 91.8294 -35.4244
v 2.48587 5 0.265434
vt 97.8689 -10.4502
v 2.46986 5 -0.387
vt 97.2388 15.2362
v 2.28554 5 -1.01306
vt 89.982 39.8843
v 1.94547 5 -1.57008
vt 76.5931 61.8143
v 1.47281 5 -2.02011
vt 57.9845 79.5318
v 0.89978 5 -2.33247
vt 35.4244 91.8294
v 0.265434 5 -2.48587
vt 10.4502 97.8689
v -0.387 5 -2.46986
vt -15.2362 97.2388
v -1.01306 5 -2.28554
vt -39.8843 89.982
v -1.57008 5 -1.94547
vt -61.8143 76.5931
v -2.02011 5 -1.47281
vt -79.5318 57.9845
v -2.33247 5 -0.89978
vt -91.8294 35.4244
v -2.48587 5 -0.265434
vt -97.8689 10.4502
v -2.46986 5 0.387
vt -97.2388 -15.2362
v -2.28554 5 1.01306
vt -89.982 -39.8843
v -1.94547 5 1.57008
vt -76.5931 -61.8143
v -1.47281 5 2.02011
vt -57.9845 -79.5318
v -0.89978 5 2.33247
vt -35.4244 -91.8294
v -0.265434 5 2.48587
vt -10.4502 -97.8689
f 1/1/1 2/2/1 3/3/1 4/4/1 5/5/1 6/6/1 7/7/1 8/8/1 9/9/1 10/10/1 11/11/1 12/12/1 13/13/1 14/14/1 15/15/1 16/16/1 17/17/1 18/18/1 19/19/1 20/20/1 21/21/1 22/22/1 23/23/1 24/24/1 

v 0.387 0 2.46986
vt -12.8471 0
vn 0.1548 0 0.987946
v 1.01306 0 2.28554
vt 12.8471 0
vn 0.405225 0 0.914217
vt 12.8471 196.85
vt -12.8471 196.85
f 25/25/2 26/26/3 2/27/3 1/28/2 

v 0 0 -0
vt 0 0
vn 9.57234e-017 -1 2.52583e-016
v 0.914067 -3.60956e-016 -0.405158
vt -35.9869 15.9511
v 0.917441 -7.21911e-016 -0.394928
vt -36.1197 15.5483
v 0.953226 -7.21911e-016 -0.34035
vt -37.5286 13.3996
v 1.00192 -7.21911e-016 -0.296895
vt -39.4456 11.6888
v 1.0602 -7.21911e-016 -0.267522
vt -41.74 10.5324
v 1.12409 -7.21911e-016 -0.254234
vt -44.2556 10.0092
v 1.18925 -7.21911e-016 -0.257936
vt -46.8209 10.155
v 1.25123 -7.21911e-016 -0.278376
vt -49.2611 10.9597
v 1.30581 -7.21911e-016 -0.314161
vt -51.4098 12.3686
v 1.34926 -7.21911e-016 -0.362853
vt -53.1206 14.2855
v 1.37864 -7.21911e-016 -0.421132
vt -54.277 16.58
v 1.39192 -7.21911e-016 -0.485028
vt -54.8002 19.0956
v 1.38822 -7.21911e-016 -0.550186
vt -54.6544 21.6609
v 1.36948 -3.60956e-016 -0.607019
vt -53.9165 23.8984
v 2.28554 0 -1.01306
vt -89.982 39.8843
v 2.46986 0 -0.387
vt -97.2388 15.2362
v 2.48587 0 0.265434
vt -97.8689 -10.4502
v 2.33247 0 0.89978
vt -91.8294 -35.4244
v 2.02011 0 1.47281
vt -79.5318 -57.9845
v 1.57008 0 1.94547
vt -61.8143 -76.5931
vt -39.8843 -89.982
vt -15.2362 -97.2388
v -0.265434 0 2.48587
vt 10.4502 -97.8689
v -0.89978 0 2.33247
vt 35.4244 -91.8294
v -1.47281 0 2.02011
vt 57.9845 -79.5318
v -1.94547 0 1.57008
vt 76.5931 -61.8143
v -2.28554 0 1.01306
vt 89.982 -39.8843
v -1.43312 -3.15836e-016 0.635227
vt 56.4221 -25.0089
v -1.42858 -6.31672e-016 0.648985
vt 56.2434 -25.5506
v -1.3928 -6.31672e-016 0.703562
vt 54.8346 -27.6993
v -1.34411 -6.31672e-016 0.747018
vt 52.9176 -29.4102
v -1.28583 -6.31672e-016 0.776391
vt 50.6231 -30.5666
v -1.22193 -6.31672e-016 0.789679
vt 48.1075 -31.0897
v -1.15677 -6.31672e-016 0.785977
vt 45.5422 -30.944
v -1.09479 -6.31672e-016 0.765537
vt 43.1021 -30.1392
v -1.04022 -6.31672e-016 0.729751
vt 40.9534 -28.7304
v -0.99676 -6.31672e-016 0.68106
vt 39.2425 -26.8134
v -0.967387 -6.31672e-016 0.62278
vt 38.0861 -24.5189
v -0.954099 -6.31672e-016 0.558884
vt 37.563 -22.0033
v -0.957801 -6.31672e-016 0.493726
vt 37.7087 -19.438
v -0.977707 -3.15836e-016 0.433366
vt 38.4924 -17.0617
f 27/29/4 28/30/4 29/31/4 30/32/4 31/33/4 32/34/4 33/35/4 34/36/4 35/37/4 36/38/4 37/39/4 38/40/4 39/41/4 40/42/4 41/43/4 42/44/4 43/45/4 44/46/4 45/47/4 46/48/4 47/49/4 26/50/4 25/51/4 48/52/4 49/53/4 50/54/4 51/55/4 52/56/4 53/57/4 54/58/4 55/59/4 56/60/4 57/61/4 58/62/4 59/63/4 60/64/4 61/65/4 62/66/4 63/67/4 64/68/4 65/69/4 66/70/4 

vn -1.24069e-016 -1 -2.40142e-016
v 1.36778 -7.21911e-016 -0.612166
vt -53.8497 24.101
v 1.332 -7.21911e-016 -0.666743
vt -52.4408 26.2497
v 1.28331 -7.21911e-016 -0.710199
vt -50.5239 27.9606
v 1.22503 -7.21911e-016 -0.739572
vt -48.2294 29.117
v 1.16113 -7.21911e-016 -0.75286
vt -45.7138 29.6402
v 1.09597 -7.21911e-016 -0.749158
vt -43.1485 29.4944
v 1.03399 -7.21911e-016 -0.728718
vt -40.7084 28.6897
v 0.979415 -7.21911e-016 -0.692933
vt -38.5597 27.2808
v 0.935959 -7.21911e-016 -0.644241
vt -36.8488 25.3638
v 0.906587 -7.21911e-016 -0.585961
vt -35.6924 23.0693
v 0.893299 -7.21911e-016 -0.522065
vt -35.1692 20.5538
v 0.897001 -7.21911e-016 -0.456907
vt -35.315 17.9885
v -0.978241 -6.31672e-016 0.431747
vt 38.5134 -16.9979
v -1.01403 -6.31672e-016 0.377169
vt 39.9223 -14.8492
v -1.06272 -6.31672e-016 0.333714
vt 41.8393 -13.1383
v -1.121 -6.31672e-016 0.304341
vt 44.1338 -11.9819
v -1.18489 -6.31672e-016 0.291053
vt 46.6494 -11.4588
v -1.25005 -6.31672e-016 0.294755
vt 49.2146 -11.6045
v -1.31203 -6.31672e-016 0.315195
vt 51.6548 -12.4093
v -1.36661 -6.31672e-016 0.35098
vt 53.8035 -13.8181
v -1.41006 -6.31672e-016 0.399672
vt 55.5144 -15.7351
v -1.43944 -6.31672e-016 0.457951
vt 56.6708 -18.0296
v -1.45273 -6.31672e-016 0.521847
vt 57.1939 -20.5452
v -1.44902 -6.31672e-016 0.587005
vt 57.0482 -23.1104
v -2.46986 0 0.387
vt 97.2388 -15.2362
v -2.48587 0 -0.265434
vt 97.8689 10.4502
v -2.33247 0 -0.89978
vt 91.8294 35.4244
v -2.02011 0 -1.47281
vt 79.5318 57.9845
v -1.57008 0 -1.94547
vt 61.8143 76.5931
v -1.01306 0 -2.28554
vt 39.8843 89.982
v -0.387 0 -2.46986
vt 15.2362 97.2388
v 0.265434 0 -2.48587
vt -10.4502 97.8689
v 0.89978 0 -2.33247
vt -35.4244 91.8294
v 1.47281 0 -2.02011
vt -57.9845 79.5318
v 1.94547 0 -1.57008
vt -76.5931 61.8143
f 42/44/5 41/43/5 67/71/5 68/72/5 69/73/5 70/74/5 71/75/5 72/76/5 73/77/5 74/78/5 75/79/5 76/80/5 77/81/5 78/82/5 28/30/5 27/29/5 66/70/5 79/83/5 80/84/5 81/85/5 82/86/5 83/87/5 84/88/5 85/89/5 86/90/5 87/91/5 88/92/5 89/93/5 90/94/5 53/57/5 52/56/5 91/95/5 92/96/5 93/97/5 94/98/5 95/99/5 96/100/5 97/101/5 98/102/5 99/103/5 100/104/5 101/105/5 

vt -5.80955 -1.42089e-014
vn -0.949688 3.30873e-020 0.313196
vt -6.02293 -2.84198e-014
vn -0.900683 -2.77134e-019 0.434476
v 1.36778 -9 -0.612166
vt -6.02293 -354.331
v 1.36948 -9 -0.607019
vt -5.80955 -354.331
f 41/106/6 67/107/7 102/108/7 103/109/6 

vt 9.37207 -2.84556e-014
vt 6.80266 -2.84556e-014
vn -0.757543 -8.78123e-019 0.652786
v 1.332 -9 -0.666743
vt 6.80266 -354.331
vt 9.37207 -354.331
f 67/110/7 68/111/8 104/112/8 102/113/7 

vt 21.6465 -2.84849e-014
vt 19.0771 -2.84849e-014
vn -0.562777 -1.41927e-018 0.826609
v 1.28331 -9 -0.710199
vt 19.0771 -354.331
vt 21.6465 -354.331
f 68/114/8 69/115/9 105/116/9 104/117/8 

vt 32.5333 -2.85007e-014
vt 29.9639 -2.85007e-014
vn -0.329658 -1.8637e-018 0.9441
v 1.22503 -9 -0.739572
vt 29.9639 -354.331
vt 32.5333 -354.331
f 69/118/9 70/119/10 106/120/10 105/121/9 

vt 41.2906 -2.84999e-014
vt 38.7212 -2.84999e-014
vn -0.203608 -2.03986e-018 0.979052
v 1.16113 -9 -0.75286
vt 38.7212 -354.331
vt 41.2906 -354.331
f 70/122/10 71/123/11 107/124/11 106/125/10 

vt 47.3216 -2.84834e-014
vn 0.0567269 -2.28505e-018 0.99839
vt 44.7522 -2.84834e-014
vn 0.186558 -2.34989e-018 0.982444
v 1.09597 -9 -0.749158
vt 44.7522 -354.331
vt 47.3216 -354.331
f 71/126/12 72/127/13 108/128/13 107/129/12 

vt 50.2152 -2.84561e-014
vt 47.6458 -2.84561e-014
vn 0.434476 -2.35853e-018 0.900683
v 1.03399 -9 -0.728718
vt 47.6458 -354.331
vt 50.2152 -354.331
f 72/130/13 73/131/14 109/132/14 108/133/13 

vt 49.7743 -2.84256e-014
vt 47.2048 -2.84256e-014
vn 0.652786 -2.20644e-018 0.757543
v 0.979415 -9 -0.692933
vt 47.2048 -354.331
vt 49.7743 -354.331
f 73/134/14 74/135/15 110/136/15 109/137/14 

vt 46.0289 -2.83997e-014
vt 43.4594 -2.83997e-014
vn 0.826609 -1.90398e-018 0.562777
v 0.935959 -9 -0.644241
vt 43.4594 -354.331
vt 46.0289 -354.331
f 74/138/15 75/139/16 111/140/16 110/141/15 

vt 39.2342 -2.83851e-014
vt 36.6648 -2.83851e-014
vn 0.9441 -1.47177e-018 0.329658
v 0.906587 -9 -0.585961
vt 36.6648 -354.331
vt 39.2342 -354.331
f 75/142/16 76/143/17 112/144/17 111/145/16 

vt 29.8534 -2.83849e-014
vt 27.284 -2.83849e-014
vn 0.997253 -9.3926e-019 0.0740744
v 0.893299 -9 -0.522065
vt 27.284 -354.331
vt 29.8534 -354.331
f 76/146/17 77/147/18 113/148/18 112/149/17 

vt 18.5256 -2.83983e-014
vt 15.9562 -2.83983e-014
vn 0.982444 -3.42742e-019 -0.186558
v 0.897001 -9 -0.456907
vt 15.9562 -354.331
vt 18.5256 -354.331
f 77/150/18 78/151/19 114/152/19 113/153/18 

vt 6.02293 -2.84204e-014
vt 3.87762 -1.42096e-014
vn 0.949688 -3.30873e-020 -0.313196
v 0.914067 -9 -0.405158
vt 3.87762 -354.331
vt 6.02293 -354.331
f 78/154/19 28/155/20 115/156/20 114/157/19 

vt 3.45352 -2.84204e-014
vn 0.900683 2.77134e-019 -0.434476
v 0.917441 -9 -0.394928
vt 3.45352 -354.331
f 28/155/20 29/158/21 116/159/21 115/156/20 

vt -6.80266 -2.84443e-014
vt -9.37207 -2.84443e-014
vn 0.757543 8.78123e-019 -0.652786
v 0.953226 -9 -0.34035
vt -9.37207 -354.331
vt -6.80266 -354.331
f 29/160/21 30/161/22 117/162/22 116/163/21 

vt -19.0771 -2.84622e-014
vt -21.6465 -2.84622e-014
vn 0.562777 1.41927e-018 -0.826609
v 1.00192 -9 -0.296895
vt -21.6465 -354.331
vt -19.0771 -354.331
f 30/164/22 31/165/23 118/166/23 117/167/22 

vt -29.9639 -2.84684e-014
vt -32.5333 -2.84684e-014
vn 0.329658 1.8637e-018 -0.9441
v 1.0602 -9 -0.267522
vt -32.5333 -354.331
vt -29.9639 -354.331
f 31/168/23 32/169/24 119/170/24 118/171/23 

vt -38.7212 -2.84601e-014
vt -41.2906 -2.84601e-014
vn 0.0740744 2.18111e-018 -0.997253
v 1.12409 -9 -0.254234
vt -41.2906 -354.331
vt -38.7212 -354.331
f 32/172/24 33/173/25 120/174/25 119/175/24 

vt -44.7522 -2.84388e-014
vt -47.3216 -2.84388e-014
vn -0.186558 2.34989e-018 -0.982444
v 1.18925 -9 -0.257936
vt -47.3216 -354.331
vt -44.7522 -354.331
f 33/176/25 34/177/26 121/178/26 120/179/25 

vt -47.6458 -2.84098e-014
vt -50.2152 -2.84098e-014
vn -0.434476 2.35853e-018 -0.900683
v 1.25123 -9 -0.278376
vt -50.2152 -354.331
vt -47.6458 -354.331
f 34/180/26 35/181/27 122/182/27 121/183/26 

vt -47.2048 -2.83806e-014
vt -49.7743 -2.83806e-014
vn -0.652786 2.20644e-018 -0.757543
v 1.30581 -9 -0.314161
vt -49.7743 -354.331
vt -47.2048 -354.331
f 35/184/27 36/185/28 123/186/28 122/187/27 

vt -43.4594 -2.83593e-014
vt -46.0289 -2.83593e-014
vn -0.826609 1.90398e-018 -0.562777
v 1.34926 -9 -0.362853
vt -46.0289 -354.331
vt -43.4594 -354.331
f 36/188/28 37/189/29 124/190/29 123/191/28 

vt -36.6648 -2.83519e-014
vt -39.2342 -2.83519e-014
vn -0.9441 1.47177e-018 -0.329658
v 1.37864 -9 -0.421132
vt -39.2342 -354.331
vt -36.6648 -354.331
f 37/192/29 38/193/30 125/194/30 124/195/29 

vt -27.284 -2.83612e-014
vt -29.8534 -2.83612e-014
vn -0.997253 9.3926e-019 -0.0740744
v 1.39192 -9 -0.485028
vt -29.8534 -354.331
vt -27.284 -354.331
f 38/196/30 39/197/31 126/198/31 125/199/30 

vt -15.9562 -2.83856e-014
vt -18.5256 -2.83856e-014
vn -0.982444 3.42742e-019 0.186558
v 1.38822 -9 -0.550186
vt -18.5256 -354.331
vt -15.9562 -354.331
f 39/200/31 40/201/32 127/202/32 126/203/31 

vt -3.45352 -2.84198e-014
vt -3.45352 -354.331
f 40/204/32 41/106/6 103/109/6 127/205/32 

vt 54.6544 21.6609
vn 7.75115e-019 1 2.2447e-018
vt 53.9165 23.8984
vt 53.8497 24.101
vt 52.4408 26.2497
vt 50.5239 27.9606
vt 48.2294 29.117
vt 45.7138 29.6402
vt 43.1485 29.4944
vt 40.7084 28.6897
vt 38.5597 27.2808
vt 36.8488 25.3638
vt 35.6924 23.0693
vt 35.1692 20.5538
vt 35.315 17.9885
vt 35.9869 15.9511
vt 36.1197 15.5483
vt 37.5286 13.3996
vt 39.4456 11.6888
vt 41.74 10.5324
vt 44.2556 10.0092
vt 46.8209 10.155
vt 49.2611 10.9597
vt 51.4098 12.3686
vt 53.1206 14.2855
vt 54.277 16.58
vt 54.8002 19.0956
f 127/206/33 103/207/33 102/208/33 104/209/33 105/210/33 106/211/33 107/212/33 108/213/33 109/214/33 110/215/33 111/216/33 112/217/33 113/218/33 114/219/33 115/220/33 116/221/33 117/222/33 118/223/33 119/224/33 120/225/33 121/226/33 122/227/33 123/228/33 124/229/33 125/230/33 126/231/33 

vt 6.64986 -2.46659e-014
vn -0.982444 -2.44449e-018 0.186558
vt 4.14759 -1.22314e-014
vn -0.949688 -4.84715e-018 0.313196
vt 4.08045 -2.46659e-014
vn -0.900683 -2.44449e-018 0.434476
v -0.978241 -9.01913 0.431747
vt 4.08045 -355.084
v -0.957801 -9.01913 0.493726
vt 6.64986 -355.084
f 65/232/34 66/233/35 79/234/36 128/235/36 129/236/34 

vn -5.02345e-016 -1 -9.63791e-016
v -1.19663 -3.15836e-016 0.530403
vt 47.1114 -20.882
f 56/60/37 130/237/37 66/70/37 65/69/37 64/68/37 63/67/37 62/66/37 61/65/37 60/64/37 59/63/37 58/62/37 57/61/37 

vn -1.17956e-016 -1 -1.73985e-015
f 54/58/38 53/57/38 130/237/38 56/60/38 55/59/38 

vt -4.08045 -2.49845e-014
vn 0.982444 -9.48376e-019 -0.186558
vt -6.07953 -1.255e-014
vn 0.949688 -1.88052e-018 -0.313196
vt -6.64986 -2.49845e-014
vn 0.900683 -9.48376e-019 -0.434476
v -1.42858 -9.01913 0.648985
vt -6.64986 -355.084
v -1.44902 -9.01913 0.587005
vt -4.08045 -355.084
f 90/238/39 53/239/40 54/240/41 131/241/41 132/242/39 

vn 5.1232e-016 -1 9.78381e-016
f 82/86/42 81/85/42 130/237/42 53/57/42 90/94/42 89/93/42 88/92/42 87/91/42 86/90/42 85/89/42 84/88/42 83/87/42 

vt -31.4491 -2.4869e-014
vn -0.562777 0 0.826609
vt -34.0185 -2.4869e-014
vn -0.329658 0 0.9441
v -1.121 -9.01913 0.304341
vt -34.0185 -355.084
v -1.06272 -9.01913 0.333714
vt -31.4491 -355.084
f 81/243/43 82/244/44 133/245/44 134/246/43 

vt -40.7697 -2.4869e-014
vt -43.3391 -2.4869e-014
vn -0.0740744 0 0.997253
v -1.18489 -9.01913 0.291053
vt -43.3391 -355.084
vt -40.7697 -355.084
f 82/247/44 83/248/45 135/249/45 133/250/44 

vt -47.2243 -2.4869e-014
vt -49.7937 -2.4869e-014
vn 0.186558 0 0.982444
v -1.25005 -9.01913 0.294755
vt -49.7937 -355.084
vt -47.2243 -355.084
f 83/251/45 84/252/46 136/253/46 135/254/45 

vt -50.3731 -2.4869e-014
vt -52.9425 -2.4869e-014
vn 0.434476 0 0.900683
v -1.31203 -9.01913 0.315195
vt -52.9425 -355.084
vt -50.3731 -355.084
f 84/255/46 85/256/47 137/257/47 136/258/46 

vt -50.0015 -2.4869e-014
vt -52.5709 -2.4869e-014
vn 0.652786 0 0.757543
v -1.36661 -9.01913 0.35098
vt -52.5709 -355.084
vt -50.0015 -355.084
f 85/259/47 86/260/48 138/261/48 137/262/47 

vt -46.1348 -2.4869e-014
vt -48.7042 -2.4869e-014
vn 0.826609 0 0.562777
v -1.41006 -9.01913 0.399672
vt -48.7042 -355.084
vt -46.1348 -355.084
f 86/263/48 87/264/49 139/265/49 138/266/48 

vt -39.0366 -2.4869e-014
vt -41.606 -2.4869e-014
vn 0.9441 0 0.329658
v -1.43944 -9.01913 0.457951
vt -41.606 -355.084
vt -39.0366 -355.084
f 87/267/49 88/268/50 140/269/50 139/270/49 

vt -29.1905 -2.4869e-014
vt -31.7599 -2.4869e-014
vn 0.997253 0 0.0740744
v -1.45273 -9.01913 0.521847
vt -31.7599 -355.084
vt -29.1905 -355.084
f 88/271/50 89/272/51 141/273/51 140/274/50 

vt -17.2676 -2.4869e-014
vt -19.8371 -2.4869e-014
vt -19.8371 -355.084
vt -17.2676 -355.084
f 89/275/51 90/276/39 132/277/39 141/278/51 

vt -55.5144 -15.7351
vt -56.6708 -18.0296
vt -57.1939 -20.5452
vt -57.0482 -23.1104
vt -56.2434 -25.5506
v -1.3928 -9.01913 0.703562
vt -54.8346 -27.6993
v -1.34411 -9.01913 0.747018
vt -52.9176 -29.4102
v -1.28583 -9.01913 0.776391
vt -50.6231 -30.5666
v -1.22193 -9.01913 0.789679
vt -48.1075 -31.0897
v -1.15677 -9.01913 0.785977
vt -45.5422 -30.944
v -1.09479 -9.01913 0.765537
vt -43.1021 -30.1392
v -1.04022 -9.01913 0.729751
vt -40.9534 -28.7304
v -0.99676 -9.01913 0.68106
vt -39.2425 -26.8134
v -0.967387 -9.01913 0.62278
vt -38.0861 -24.5189
v -0.954099 -9.01913 0.558884
vt -37.563 -22.0033
vt -37.7087 -19.438
vt -38.5134 -16.9979
v -1.01403 -9.01913 0.377169
vt -39.9223 -14.8492
vt -41.8393 -13.1383
vt -44.1338 -11.9819
vt -46.6494 -11.4588
vt -49.2146 -11.6045
vt -51.6548 -12.4093
vt -53.8035 -13.8181
f 139/279/1 140/280/1 141/281/1 132/282/1 131/283/1 142/284/1 143/285/1 144/286/1 145/287/1 146/288/1 147/289/1 148/290/1 149/291/1 150/292/1 151/293/1 129/294/1 128/295/1 152/296/1 134/297/1 133/298/1 135/299/1 136/300/1 137/301/1 138/302/1 

vt 9.47238 -2.4869e-014
vt 6.90297 -2.4869e-014
vn 0.757543 0 -0.652786
vt 6.90297 -355.084
vt 9.47238 -355.084
f 54/303/41 55/304/52 142/305/52 131/306/41 

vt 22.4672 -2.4869e-014
vt 19.8978 -2.4869e-014
vn 0.562777 0 -0.826609
vt 19.8978 -355.084
vt 22.4672 -355.084
f 55/307/52 56/308/53 143/309/53 142/310/52 

vt 34.0185 -2.4869e-014
vt 31.4491 -2.4869e-014
vn 0.329658 0 -0.9441
vt 31.4491 -355.084
vt 34.0185 -355.084
f 56/311/53 57/312/54 144/313/54 143/314/53 

vt 43.3391 -2.4869e-014
vt 40.7697 -2.4869e-014
vn 0.0740744 0 -0.997253
vt 40.7697 -355.084
vt 43.3391 -355.084
f 57/315/54 58/316/55 145/317/55 144/318/54 

vt 49.7937 -2.4869e-014
vt 47.2243 -2.4869e-014
vn -0.186558 0 -0.982444
vt 47.2243 -355.084
vt 49.7937 -355.084
f 58/319/55 59/320/56 146/321/56 145/322/55 

vt 52.9425 -2.4869e-014
vt 50.3731 -2.4869e-014
vn -0.434476 0 -0.900683
vt 50.3731 -355.084
vt 52.9425 -355.084
f 59/323/56 60/324/57 147/325/57 146/326/56 

vt 52.5709 -2.4869e-014
vt 50.0015 -2.4869e-014
vn -0.652786 0 -0.757543
vt 50.0015 -355.084
vt 52.5709 -355.084
f 60/327/57 61/328/58 148/329/58 147/330/57 

vt 48.7042 -2.4869e-014
vt 46.1348 -2.4869e-014
vn -0.826609 0 -0.562777
vt 46.1348 -355.084
vt 48.7042 -355.084
f 61/331/58 62/332/59 149/333/59 148/334/58 

vt 41.606 -2.4869e-014
vt 39.0366 -2.4869e-014
vn -0.9441 0 -0.329658
vt 39.0366 -355.084
vt 41.606 -355.084
f 62/335/59 63/336/60 150/337/60 149/338/59 

vt 31.7599 -2.4869e-014
vt 29.1905 -2.4869e-014
vn -0.997253 0 -0.0740744
vt 29.1905 -355.084
vt 31.7599 -355.084
f 63/339/60 64/340/61 151/341/61 150/342/60 

vt 19.8371 -2.4869e-014
vt 17.2676 -2.4869e-014
vt 17.2676 -355.084
vt 19.8371 -355.084
f 64/343/61 65/344/34 129/345/34 151/346/61 

vt -6.90297 -2.4869e-014
vt -9.47238 -2.4869e-014
vn -0.757543 0 0.652786
vt -9.47238 -355.084
vt -6.90297 -355.084
f 79/347/36 80/348/62 152/349/62 128/350/36 

vn 5.54542e-019 -1 1.7583e-015
f 66/70/63 130/237/63 81/85/63 80/84/63 79/83/63 

vt -19.8978 -2.4869e-014
vt -22.4672 -2.4869e-014
vt -22.4672 -355.084
vt -19.8978 -355.084
f 80/351/62 81/352/43 134/353/43 152/354/62 

vn -0.987946 0 0.1548
vn -0.914217 0 0.405225
f 91/25/64 52/26/65 20/27/65 19/28/64 

vn -0.778186 0 0.628034
f 52/25/65 51/26/66 21/27/66 20/28/65 

vn -0.589123 0 0.808043
f 51/25/66 50/26/67 22/27/67 21/28/66 

vn -0.359912 0 0.932986
f 50/25/67 49/26/68 23/27/68 22/28/67 

vn -0.106174 0 0.994348
f 49/25/68 48/26/69 24/27/69 23/28/68 

f 48/25/69 25/26/2 1/27/2 24/28/69 

vn -0.994348 0 -0.106174
f 92/25/70 91/26/64 19/27/64 18/28/70 

vn -0.932986 0 -0.359912
f 93/25/71 92/26/70 18/27/70 17/28/71 

vn -0.808043 0 -0.589123
f 94/25/72 93/26/71 17/27/71 16/28/72 

vn -0.628034 0 -0.778186
f 95/25/73 94/26/72 16/27/72 15/28/73 

vn -0.405225 0 -0.914217
f 96/25/74 95/26/73 15/27/73 14/28/74 

vn -0.1548 0 -0.987946
f 97/25/75 96/26/74 14/27/74 13/28/75 

vn 0.106174 0 -0.994348
f 98/25/76 97/26/75 13/27/75 12/28/76 

vn 0.359912 0 -0.932986
f 99/25/77 98/26/76 12/27/76 11/28/77 

vn 0.589123 0 -0.808043
f 100/25/78 99/26/77 11/27/77 10/28/78 

vn 0.778186 0 -0.628034
f 101/25/79 100/26/78 10/27/78 9/28/79 

vn 0.914217 0 -0.405225
f 42/25/80 101/26/79 9/27/79 8/28/80 

vn 0.987946 0 -0.1548
f 43/25/81 42/26/80 8/27/80 7/28/81 

vn 0.994348 0 0.106174
f 44/25/82 43/26/81 7/27/81 6/28/82 

vn 0.932986 0 0.359912
f 45/25/83 44/26/82 6/27/82 5/28/83 

vn 0.808043 0 0.589123
f 46/25/84 45/26/83 5/27/83 4/28/84 

vn 0.628034 0 0.778186
f 47/25/85 46/26/84 4/27/84 3/28/85 

f 26/25/3 47/26/85 3/27/85 2/28/3 

