# Alias OBJ Model File
# Exported from SketchUp, (c) 2000-2012 Trimble Navigation Limited
# File units = meters

mtllib Pin.mtl

g Mesh1 Model

usemtl FrontColor
v 0 0.75 -0
vt 4.44089e-016 17.8139
vn -3.42225e-016 -1 1.3341e-016
v 0.246573 0.56507 -0
vt -1.2671 5.74575
vn -0.6 -0.8 1.80973e-016
v 1 1.60297e-031 -0
vt -5.13883 -31.1296
v 0.965926 1.60297e-031 0.258819
vt 5.13883 -31.1296
vn -0.579555 -0.8 -0.155291
v 0.238171 0.56507 0.0638178
vt 1.2671 5.74575
f 1/1/1 2/2/2 3/3/2 4/4/3 5/5/3 

v 0.238171 0.56507 -0.0638178
vn -0.579555 -0.8 0.155291
v 0.965926 1.60297e-031 -0.258819
vt 0 17.8139
vn -3.53826e-016 -1 1.3921e-016
f 6/2/4 7/3/4 3/4/2 2/5/2 1/6/5 

v 0.213539 0.56507 -0.123287
vn -0.519615 -0.8 0.3
v 0.866025 1.60297e-031 -0.5
vt 8.88178e-016 17.8139
vn -3.48025e-016 -1 1.4066e-016
f 8/2/6 9/3/6 7/4/4 6/5/4 1/7/7 

v 0.174354 0.56507 -0.174354
vn -0.424264 -0.8 0.424264
v 0.707107 1.60297e-031 -0.707107
vn -3.59626e-016 -1 1.13108e-016
f 10/2/8 11/3/8 9/4/6 8/5/6 1/6/9 

v 0.123287 0.56507 -0.213539
vn -0.3 -0.8 0.519615
v 0.5 1.60297e-031 -0.866025
vn -3.79928e-016 -1 1.04408e-016
f 12/2/10 13/3/10 11/4/8 10/5/8 1/7/11 

v 0.0638178 0.56507 -0.238171
vn -0.155291 -0.8 0.579555
v 0.258819 1.60297e-031 -0.965926
vn -3.45125e-016 -1 1.04408e-016
f 14/2/12 15/3/12 13/4/10 12/5/10 1/6/13 

v 0 0.56507 -0.246573
vn -1.18329e-016 -0.8 0.6
v 0 1.60297e-031 -1
vn -3.50201e-016 -1 1.10208e-016
f 16/2/14 17/3/14 15/4/12 14/5/12 1/6/15 

v -0.0638178 0.56507 -0.238171
vn 0.155291 -0.8 0.579555
v -0.258819 1.60297e-031 -0.965926
vn -3.58901e-016 -1 8.70064e-017
f 18/2/16 19/3/16 17/4/14 16/5/14 1/6/17 

v -0.123287 0.56507 -0.213539
vn 0.3 -0.8 0.519615
v -0.5 1.60297e-031 -0.866025
vn -3.84278e-016 -1 1.04408e-016
f 20/2/18 21/3/18 19/4/16 18/5/16 1/6/19 

v -0.174354 0.56507 -0.174354
vn 0.424264 -0.8 0.424264
v -0.707107 1.60297e-031 -0.707107
vn -3.82828e-016 -1 9.28068e-017
f 22/2/20 23/3/20 21/4/18 20/5/18 1/6/21 

v -0.213539 0.56507 -0.123287
vn 0.519615 -0.8 0.3
v -0.866025 1.60297e-031 -0.5
vn -3.45125e-016 -1 8.99066e-017
f 24/2/22 25/3/22 23/4/20 22/5/20 1/6/23 

v -0.238171 0.56507 -0.0638178
vn 0.579555 -0.8 0.155291
v -0.965926 1.60297e-031 -0.258819
vn -3.53826e-016 -1 1.72563e-016
f 26/2/24 27/3/24 25/4/22 24/5/22 1/6/25 

v -0.246573 0.56507 -0
vn 0.6 -0.8 3.48025e-017
v -1 1.60297e-031 -0
vn -3.59626e-016 -1 1.92139e-016
f 28/2/26 29/3/26 27/4/24 26/5/24 1/6/27 

v -0.238171 0.56507 0.0638178
vn 0.579555 -0.8 -0.155291
v -0.965926 1.60297e-031 0.258819
vn -3.71227e-016 -1 1.82713e-016
f 30/2/28 31/3/28 29/4/26 28/5/26 1/6/29 

v -0.213539 0.56507 0.123287
vn 0.519615 -0.8 -0.3
v -0.866025 1.60297e-031 0.5
vn -3.71227e-016 -1 1.88514e-016
f 32/2/30 33/3/30 31/4/28 30/5/28 1/6/31 

v -0.174354 0.56507 0.174354
vn 0.424264 -0.8 -0.424264
v -0.707107 1.60297e-031 0.707107
vn -3.27724e-016 -1 1.94314e-016
f 34/2/32 35/3/32 33/4/30 32/5/30 1/7/33 

v -0.123287 0.56507 0.213539
vn 0.3 -0.8 -0.519615
v -0.5 1.60297e-031 0.866025
vn -3.74127e-016 -1 5.5104e-017
f 36/2/34 37/3/34 35/4/32 34/5/32 1/6/35 

v -0.0638178 0.56507 0.238171
vn 0.155291 -0.8 -0.579555
v -0.258819 1.60297e-031 0.965926
vn -3.36425e-016 -1 8.12059e-017
f 38/2/36 39/3/36 37/4/34 36/5/34 1/6/37 

v 0 0.56507 0.246573
vn -2.7146e-016 -0.8 -0.6
v 0 1.60297e-031 1
vt 2.22045e-016 17.8139
vn -3.02347e-016 -1 9.86072e-017
f 40/2/38 41/3/38 39/4/36 38/5/36 1/8/39 

v 0.0638178 0.56507 0.238171
vn -0.155291 -0.8 -0.579555
v 0.258819 1.60297e-031 0.965926
vn -2.89296e-016 -1 9.28068e-017
f 42/2/40 43/3/40 41/4/38 40/5/38 1/8/41 

v 0.123287 0.56507 0.213539
vn -0.3 -0.8 -0.519615
v 0.5 1.60297e-031 0.866025
vn -3.20473e-016 -1 1.16008e-016
f 44/2/42 45/3/42 43/4/40 42/5/40 1/6/43 

v 0.174354 0.56507 0.174354
vn -0.424264 -0.8 -0.424264
v 0.707107 1.60297e-031 0.707107
vn -4.00229e-016 -1 9.28068e-017
f 46/2/44 47/3/44 45/4/42 44/5/42 1/7/45 

v 0.213539 0.56507 0.123287
vn -0.519615 -0.8 -0.3
v 0.866025 1.60297e-031 0.5
vn -3.33524e-016 -1 8.99066e-017
f 48/2/46 49/3/46 47/4/44 46/5/44 1/7/47 

vn -3.59626e-016 -1 1.17459e-016
f 5/2/3 4/3/3 49/4/46 48/5/46 1/6/48 

g Mesh2 Model

v 0.238171 1.60297e-031 -0.0638178
vt -1.2671 -1.38567e-019
vn -0.965926 -7.26076e-021 0.258819
v 0.246573 1.60297e-031 -0
vt 1.2671 -1.38567e-019
vn -0.704063 -1.06727e-020 0.710138
v 0.246573 0.564597 -0
vt 1.2671 22.2282
vn -0.293346 0.59574 0.747691
vt 1.2671 22.2469
vn -1 -1.51587e-020 -0
v 0.246573 6 -0
vt 1.2671 236.22
v 0.238171 6 -0.0638178
vt -1.2671 236.22
vt -1.2671 22.2469
v 0.238171 0.564597 -0.0638178
vt -1.2671 22.2282
f 50/9/49 51/10/50 52/11/51 2/12/52 53/13/52 54/14/49 6/15/49 55/16/49 

v -0.258158 1.60297e-031 0.963459
vt 10.1637 -37.9315
vn 0 -1 -0
v -0.498723 1.60297e-031 0.863814
vt 19.6348 -34.0084
v -0.705301 1.60297e-031 0.705301
vt 27.7678 -27.7678
v -0.863814 1.60297e-031 0.498723
vt 34.0084 -19.6348
v -0.963459 1.60297e-031 0.258158
vt 37.9315 -10.1637
v -0.997446 1.60297e-031 -0
vt 39.2695 0
v -0.963459 1.60297e-031 -0.258158
vt 37.9315 10.1637
v -0.863814 1.60297e-031 -0.498723
vt 34.0084 19.6348
v -0.705301 1.60297e-031 -0.705301
vt 27.7678 27.7678
v -0.498723 1.60297e-031 -0.863814
vt 19.6348 34.0084
v -0.258158 1.60297e-031 -0.963459
vt 10.1637 37.9315
v 0 1.60297e-031 -0.997446
vt 0 39.2695
v 0.258158 1.60297e-031 -0.963459
vt -10.1637 37.9315
v 0.498723 1.60297e-031 -0.863814
vt -19.6348 34.0084
v 0.705301 1.60297e-031 -0.705301
vt -27.7678 27.7678
v 0.863814 1.60297e-031 -0.498723
vt -34.0084 19.6348
v 0.963459 1.60297e-031 -0.258158
vt -37.9315 10.1637
v 0.997446 1.60297e-031 -0
vt -39.2695 0
vt -9.7076 0
vt -9.37682 2.51251
v 0.213539 1.60297e-031 -0.123287
vt -8.40703 4.8538
v 0.174354 1.60297e-031 -0.174354
vt -6.86431 6.86431
v 0.123287 1.60297e-031 -0.213539
vt -4.8538 8.40703
v 0.0638178 1.60297e-031 -0.238171
vt -2.51251 9.37682
v 0 1.60297e-031 -0.246573
vt 0 9.7076
v -0.0638178 1.60297e-031 -0.238171
vt 2.51251 9.37682
v -0.123287 1.60297e-031 -0.213539
vt 4.8538 8.40703
v -0.174354 1.60297e-031 -0.174354
vt 6.86431 6.86431
v -0.213539 1.60297e-031 -0.123287
vt 8.40703 4.8538
v -0.238171 1.60297e-031 -0.0638178
vt 9.37682 2.51251
v -0.246573 1.60297e-031 -0
vt 9.7076 0
v -0.238171 1.60297e-031 0.0638178
vt 9.37682 -2.51251
v -0.213539 1.60297e-031 0.123287
vt 8.40703 -4.8538
v -0.174354 1.60297e-031 0.174354
vt 6.86431 -6.86431
v -0.123287 1.60297e-031 0.213539
vt 4.8538 -8.40703
v -0.0638178 1.60297e-031 0.238171
vt 2.51251 -9.37682
v 0 1.60297e-031 0.246573
vt 0 -9.7076
v 0.0638178 1.60297e-031 0.238171
vt -2.51251 -9.37682
v 0.123287 1.60297e-031 0.213539
vt -4.8538 -8.40703
v 0.174354 1.60297e-031 0.174354
vt -6.86431 -6.86431
v 0.213539 1.60297e-031 0.123287
vt -8.40703 -4.8538
v 0.238171 1.60297e-031 0.0638178
vt -9.37682 -2.51251
v 0.997446 1.60297e-031 -0
v 0.997446 1.60297e-031 -0
v 0.963459 1.60297e-031 0.258158
vt -37.9315 -10.1637
v 0.863814 1.60297e-031 0.498723
vt -34.0084 -19.6348
v 0.705301 1.60297e-031 0.705301
vt -27.7678 -27.7678
v 0.498723 1.60297e-031 0.863814
vt -19.6348 -34.0084
v 0.258158 1.60297e-031 0.963459
vt -10.1637 -37.9315
v 0 1.60297e-031 0.997446
vt 0 -39.2695
f 56/17/53 57/18/53 58/19/53 59/20/53 60/21/53 61/22/53 62/23/53 63/24/53 64/25/53 65/26/53 66/27/53 67/28/53 68/29/53 69/30/53 70/31/53 71/32/53 72/33/53 73/34/53 51/35/53 50/36/53 74/37/53 75/38/53 76/39/53 77/40/53 78/41/53 79/42/53 80/43/53 81/44/53 82/45/53 83/46/53 84/47/53 85/48/53 86/49/53 87/50/53 88/51/53 89/52/53 90/53/53 91/54/53 92/55/53 93/56/53 94/57/53 95/58/53 96/34/53 97/34/53 98/59/53 99/60/53 100/61/53 101/62/53 102/63/53 103/64/53 

vt 5.1257 -31.0212
vn -0.155546 0.799263 0.580504
v -0.0638178 0.564597 0.238171
vt 1.2671 5.76347
vt 0 17.8429
vn 5.65296e-017 0.998635 0.0522229
v -0.123287 0.564597 0.213539
vt -1.2671 5.76347
vn -0.300491 0.799263 0.520466
vt -5.1257 -31.0212
f 56/65/54 104/66/54 1/67/55 105/68/56 57/69/56 

vn 1.04409e-016 0.799263 0.600982
v 0 0.564597 0.246573
vt -2.22045e-016 17.8429
vn 2.75401e-017 0.998635 0.0522229
f 56/69/54 103/65/57 106/66/57 1/70/58 104/68/54 

vn 0.155546 0.799263 0.580504
v 0.0638178 0.564597 0.238171
vn 3.69617e-017 0.998635 0.0522229
f 103/69/57 102/65/59 107/66/59 1/67/60 106/68/57 

vn 0.300491 0.799263 0.520466
v 0.123287 0.564597 0.213539
vn 5.79791e-017 0.998635 0.0522229
f 107/68/59 102/69/59 101/65/61 108/66/61 1/67/62 

vn 0.424958 0.799263 0.424958
v 0.174354 0.564597 0.174354
vt 8.88178e-016 17.8429
vn 6.3777e-017 0.998635 0.0522229
f 108/68/61 101/69/61 100/65/63 109/66/63 1/71/64 

vn 3.76864e-017 0.998635 0.0522229
vn 0.520466 0.799263 0.300491
v 0.213539 0.564597 0.123287
f 1/67/65 109/68/63 100/69/63 99/65/66 110/66/66 

vn 2.89896e-017 0.998635 0.0522229
vn 0.580504 0.799263 0.155546
v 0.238171 0.564597 0.0638178
f 1/67/67 110/68/66 99/69/66 98/65/68 111/66/68 

vn 0.537198 0.714435 0.448331
vn -1.73937e-017 0.998635 0.0522229
f 111/68/68 98/69/68 73/65/69 52/66/51 1/70/70 

vn -2.31916e-017 0.998635 0.0522229
vn 0.580504 0.799263 -0.155546
f 1/67/71 52/68/51 73/69/69 72/65/72 55/66/72 

vt 9.7076 6.31089e-030
vt 9.7076 22.2282
vt 0 29.5276
v 0 1.60297e-031 -0
vt 0 6.31089e-030
vn 0 0 1
f 51/72/50 52/73/51 1/74/70 112/75/73 

vt -1.2671 -1.50728e-019
vt 1.2671 -1.50728e-019
vn -0.965926 -3.08685e-020 -0.258819
v 0.238171 6 0.0638178
f 51/76/50 95/77/74 111/11/74 5/12/74 113/13/74 53/14/52 2/15/52 52/16/51 

vt -1.2671 -4.38379e-019
vt 1.2671 -4.38379e-019
vn -0.866025 -1.4712e-017 -0.5
v 0.213539 6 0.123287
f 95/78/74 94/79/75 110/11/75 48/12/75 114/13/75 113/14/74 5/15/74 111/16/74 

vt -1.2671 -2.80332e-016
vt 1.2671 -2.80332e-016
vn -0.707107 -2.59693e-017 -0.707107
v 0.174354 6 0.174354
f 94/80/75 93/81/76 109/11/76 46/12/76 115/13/76 114/14/75 48/15/75 110/16/75 

vt -1.2671 -2.15277e-016
vt 1.2671 -2.15277e-016
vn -0.5 -1.12943e-017 -0.866025
v 0.123287 6 0.213539
f 93/82/76 92/83/77 108/11/77 44/12/77 116/13/77 115/14/76 46/15/76 109/16/76 

vt -1.2671 -2.67182e-019
vt 1.2671 -2.67182e-019
vn -0.258819 -1.30442e-020 -0.965926
v 0.0638178 6 0.238171
f 92/84/77 91/85/78 107/11/78 42/12/78 117/13/78 116/14/77 44/15/77 108/16/77 

vt -1.2671 1.82406e-020
vt 1.2671 1.82406e-020
vn 0 1.27438e-021 -1
v 0 6 0.246573
f 91/86/78 90/87/79 106/11/79 40/12/79 118/13/79 117/14/78 42/15/78 107/16/78 

vt -1.2671 6.0802e-021
vt 1.2671 6.0802e-021
vn 0.258819 -2.85297e-021 -0.965926
v -0.0638178 6 0.238171
f 90/88/79 89/89/80 104/11/80 38/12/80 119/13/80 118/14/79 40/15/79 106/16/79 

vt -1.2671 -6.05276e-020
vt 1.2671 -6.05276e-020
vn 0.5 2.35782e-020 -0.866025
v -0.123287 6 0.213539
f 89/90/80 88/91/81 105/11/81 36/12/81 120/13/81 119/14/80 38/15/80 104/16/80 

vt -1.2671 5.10504e-019
vt 1.2671 5.10504e-019
vn 0.707107 6.24161e-020 -0.707107
v -0.174354 0.564597 0.174354
v -0.174354 6 0.174354
f 88/92/81 87/93/82 121/11/82 34/12/82 122/13/82 120/14/81 36/15/81 105/16/81 

vt -1.2671 6.80671e-019
vt 1.2671 6.80671e-019
vn 0.866025 5.41516e-020 -0.5
v -0.213539 0.564597 0.123287
v -0.213539 6 0.123287
f 87/94/82 86/95/83 123/11/83 32/12/83 124/13/83 122/14/82 34/15/82 121/16/82 

vt -1.2671 3.5278e-019
vt 1.2671 3.5278e-019
vn 0.965926 1.75295e-020 -0.258819
v -0.238171 0.564597 0.0638178
v -0.238171 6 0.0638178
f 86/96/83 85/97/84 125/11/84 30/12/84 126/13/84 124/14/83 32/15/83 123/16/83 

vt -1.2671 -1.82406e-020
vt 1.2671 -1.82406e-020
vn 1 3.75621e-021 -0
v -0.246573 0.564597 -0
v -0.246573 6 -0
f 85/98/84 84/99/85 127/11/85 28/12/85 128/13/85 126/14/84 30/15/84 125/16/84 

vt -1.2671 8.99258e-020
vt 1.2671 8.99258e-020
vn 0.965926 -1.82585e-020 0.258819
v -0.238171 0.564597 -0.0638178
v -0.238171 6 -0.0638178
f 84/100/85 83/101/86 129/11/86 26/12/86 130/13/86 128/14/85 28/15/85 127/16/85 

vn 0.866025 -1.671e-020 0.5
v -0.213539 0.564597 -0.123287
v -0.213539 6 -0.123287
f 83/78/86 82/79/87 131/11/87 24/12/87 132/13/87 130/14/86 26/15/86 129/16/86 

vt -1.2671 1.19479e-019
vt 1.2671 1.19479e-019
vn 0.707107 6.26054e-021 0.707107
v -0.174354 0.564597 -0.174354
v -0.174354 6 -0.174354
f 82/102/87 81/103/88 133/11/88 22/12/88 134/13/88 132/14/87 24/15/87 131/16/87 

vt -1.2671 6.31089e-030
vt 1.2671 6.31089e-030
vn 0.5 -5.09705e-020 0.866025
v -0.123287 0.564597 -0.213539
v -0.123287 6 -0.213539
f 81/104/88 80/105/89 135/11/89 20/12/89 136/13/89 134/14/88 22/15/88 133/16/88 

vt -1.2671 -9.72742e-019
vt 1.2671 -9.72742e-019
vn 0.258819 -5.00147e-020 0.965926
v -0.0638178 0.564597 -0.238171
v -0.0638178 6 -0.238171
f 80/106/89 79/107/90 137/11/90 18/12/90 138/13/90 136/14/89 20/15/89 135/16/89 

vn 1.45574e-015 2.54876e-021 1
v 0 0.564597 -0.246573
v 0 6 -0.246573
f 79/86/90 78/87/91 139/11/91 16/12/91 140/13/91 138/14/90 18/15/90 137/16/90 

vt -1.2671 3.0401e-020
vt 1.2671 3.0401e-020
vn -0.258819 6.07825e-021 0.965926
v 0.0638178 0.564597 -0.238171
v 0.0638178 6 -0.238171
f 78/108/91 77/109/92 141/11/92 14/12/92 142/13/92 140/14/91 16/15/91 139/16/91 

vt -1.2671 8.55989e-020
vt 1.2671 8.55989e-020
vn -0.5 3.1235e-020 0.866025
v 0.123287 0.564597 -0.213539
v 0.123287 6 -0.213539
f 77/110/92 76/111/93 143/11/93 12/12/93 144/13/93 142/14/92 14/15/92 141/16/92 

vn -0.707107 6.24161e-020 0.707107
v 0.174354 0.564597 -0.174354
v 0.174354 6 -0.174354
f 76/92/93 75/93/94 145/11/94 10/12/94 146/13/94 144/14/93 12/15/93 143/16/93 

vn -0.866025 3.56663e-020 0.5
v 0.213539 0.564597 -0.123287
v 0.213539 6 -0.123287
f 75/94/94 74/95/95 147/11/95 8/12/95 148/13/95 146/14/94 10/15/94 145/16/94 

f 74/104/95 50/105/49 55/11/49 6/12/49 54/13/49 148/14/95 8/15/95 147/16/95 

f 138/42/53 140/41/53 142/40/53 144/39/53 146/38/53 148/37/53 54/36/53 53/35/53 113/58/53 114/57/53 115/56/53 116/55/53 117/54/53 118/53/53 119/52/53 120/51/53 122/50/53 124/49/53 126/48/53 128/47/53 130/46/53 132/45/53 134/44/53 136/43/53 

vt 39.2695 6.31089e-030
f 73/112/69 52/73/51 51/72/50

vn 1.73937e-017 0.998635 0.0522229
vn 0.520466 0.799263 -0.300491
f 1/67/96 55/68/72 72/69/72 71/65/97 147/66/97 

vn 4.92822e-017 0.998635 0.0522229
vn 0.424958 0.799263 -0.424958
f 1/67/98 147/68/97 71/69/97 70/65/99 145/66/99 

vt -8.88178e-016 17.8429
vn 8.69687e-018 0.998635 0.0522229
vn 0.300491 0.799263 -0.520466
f 1/113/100 145/68/99 70/69/99 69/65/101 143/66/101 

vn 7.24739e-017 0.998635 0.0522229
vn 0.155546 0.799263 -0.580504
f 1/67/102 143/68/101 69/69/101 68/65/103 141/66/103 

vn 9.27666e-017 0.998635 0.0522229
vn -4.73319e-016 0.799263 -0.600982
f 1/67/104 141/68/103 68/69/103 67/65/105 139/66/105 

vn -0.155546 0.799263 -0.580504
vn 1.05812e-016 0.998635 0.0522229
f 66/65/106 137/66/106 1/67/107 139/68/105 67/69/105 

vn -0.300491 0.799263 -0.520466
vn 9.56655e-017 0.998635 0.0522229
f 65/65/108 135/66/108 1/113/109 137/68/106 66/69/106 

vn -0.424958 0.799263 -0.424958
vn 6.95749e-017 0.998635 0.0522229
f 64/65/110 133/66/110 1/113/111 135/68/108 65/69/108 

vn -0.520466 0.799263 -0.300491
f 63/65/112 131/66/112 1/113/67 133/68/110 64/69/110 

vn -0.580504 0.799263 -0.155546
vn 4.63833e-017 0.998635 0.0522229
f 62/65/113 129/66/113 1/67/114 131/68/112 63/69/112 

vn -0.600982 0.799263 -8.77033e-016
vn 2.31916e-017 0.998635 0.0522229
f 61/65/115 127/66/115 1/67/116 129/68/113 62/69/113 

vn -0.580504 0.799263 0.155546
vt 2.22045e-016 17.8429
f 60/65/117 125/66/117 1/114/71 127/68/115 61/69/115 

vn -0.520466 0.799263 0.300491
f 60/69/117 59/65/118 123/66/118 1/67/96 125/68/117 

vn -0.424958 0.799263 0.424958
vn 4.34843e-017 0.998635 0.0522229
f 58/65/119 121/66/119 1/113/120 123/68/118 59/69/118 

f 57/65/56 105/66/56 1/113/67 121/68/119 58/69/119 

